<svg xmlns="http://www.w3.org/2000/svg" width="624.379" height="651" viewBox="0 0 624.379 651">
  <g id="Design_Elements" data-name="Design Elements" transform="translate(-1043.932 -249)">
    <path id="Vector_3" data-name="Vector 3" d="M7.709,0,385-273.785,384.328-651H0Z" transform="translate(1523 249) rotate(180)" fill="#beebff"/>
    <path id="Star_7" data-name="Star 7" d="M37.477,0,35.869,17.131,53,15.523,39.75,26.5,53,37.477,35.869,35.869,37.477,53,26.5,39.75,15.523,53l1.607-17.131L0,37.477,13.25,26.5,0,15.523l17.131,1.607L15.523,0,26.5,13.25Z" transform="translate(1404 279)" fill="#12141d"/>
    <g id="Elements">
      <g id="Group">
        <g id="Group-2" data-name="Group">
          <path id="Vector" d="M0,0V13.025" transform="translate(1495.779 750.513) rotate(90)" fill="none" stroke="#fff" stroke-width="1.5"/>
          <path id="Vector-2" data-name="Vector" d="M0,0H13.025" transform="translate(1489.267 744) rotate(90)" fill="none" stroke="#fff" stroke-width="1.5"/>
        </g>
        <g id="Group-3" data-name="Group">
          <path id="Vector-3" data-name="Vector" d="M0,0V13.025" transform="translate(1495.779 785.799) rotate(90)" fill="none" stroke="#fff" stroke-width="1.5"/>
          <path id="Vector-4" data-name="Vector" d="M0,0H12.906" transform="translate(1489.268 779.404) rotate(90)" fill="none" stroke="#fff" stroke-width="1.5"/>
        </g>
        <g id="Group-4" data-name="Group">
          <path id="Vector-5" data-name="Vector" d="M0,0V13.025" transform="translate(1495.779 821.205) rotate(90)" fill="none" stroke="#fff" stroke-width="1.5"/>
          <path id="Vector-6" data-name="Vector" d="M0,0H13.025" transform="translate(1489.267 814.691) rotate(90)" fill="none" stroke="#fff" stroke-width="1.5"/>
        </g>
        <g id="Group-5" data-name="Group">
          <path id="Vector-7" data-name="Vector" d="M0,0V13.025" transform="translate(1495.779 856.609) rotate(90)" fill="none" stroke="#fff" stroke-width="1.5"/>
          <path id="Vector-8" data-name="Vector" d="M0,0H12.906" transform="translate(1489.267 850.096) rotate(90)" fill="none" stroke="#fff" stroke-width="1.5"/>
        </g>
      </g>
      <g id="Group-6" data-name="Group">
        <g id="Group-7" data-name="Group">
          <path id="Vector-9" data-name="Vector" d="M0,0V13.025" transform="translate(1468.9 750.513) rotate(90)" fill="none" stroke="#fff" stroke-width="1.5"/>
          <path id="Vector-10" data-name="Vector" d="M0,0H13.025" transform="translate(1462.388 744) rotate(90)" fill="none" stroke="#fff" stroke-width="1.5"/>
        </g>
        <g id="Group-8" data-name="Group">
          <path id="Vector-11" data-name="Vector" d="M0,0V13.025" transform="translate(1468.9 785.799) rotate(90)" fill="none" stroke="#fff" stroke-width="1.5"/>
          <path id="Vector-12" data-name="Vector" d="M0,0H12.906" transform="translate(1462.388 779.405) rotate(90)" fill="none" stroke="#fff" stroke-width="1.5"/>
        </g>
        <g id="Group-9" data-name="Group">
          <path id="Vector-13" data-name="Vector" d="M0,0V13.025" transform="translate(1468.899 821.205) rotate(90)" fill="none" stroke="#fff" stroke-width="1.5"/>
          <path id="Vector-14" data-name="Vector" d="M0,0H13.025" transform="translate(1462.387 814.691) rotate(90)" fill="none" stroke="#fff" stroke-width="1.5"/>
        </g>
        <g id="Group-10" data-name="Group">
          <path id="Vector-15" data-name="Vector" d="M0,0V13.025" transform="translate(1468.899 856.609) rotate(90)" fill="none" stroke="#fff" stroke-width="1.5"/>
          <path id="Vector-16" data-name="Vector" d="M0,0H12.906" transform="translate(1462.387 850.096) rotate(90)" fill="none" stroke="#fff" stroke-width="1.5"/>
        </g>
      </g>
      <g id="Group-11" data-name="Group">
        <g id="Group-12" data-name="Group">
          <path id="Vector-17" data-name="Vector" d="M0,0V12.906" transform="translate(1441.904 750.513) rotate(90)" fill="none" stroke="#fff" stroke-width="1.5"/>
          <path id="Vector-18" data-name="Vector" d="M0,0H13.025" transform="translate(1435.511 744) rotate(90)" fill="none" stroke="#fff" stroke-width="1.5"/>
        </g>
        <g id="Group-13" data-name="Group">
          <path id="Vector-19" data-name="Vector" d="M0,0V12.906" transform="translate(1441.904 785.799) rotate(90)" fill="none" stroke="#fff" stroke-width="1.5"/>
          <path id="Vector-20" data-name="Vector" d="M0,0H12.906" transform="translate(1435.511 779.404) rotate(90)" fill="none" stroke="#fff" stroke-width="1.5"/>
        </g>
        <g id="Group-14" data-name="Group">
          <path id="Vector-21" data-name="Vector" d="M0,0V12.906" transform="translate(1441.904 821.205) rotate(90)" fill="none" stroke="#fff" stroke-width="1.5"/>
          <path id="Vector-22" data-name="Vector" d="M0,0H13.025" transform="translate(1435.51 814.691) rotate(90)" fill="none" stroke="#fff" stroke-width="1.5"/>
        </g>
        <g id="Group-15" data-name="Group">
          <path id="Vector-23" data-name="Vector" d="M0,0V12.906" transform="translate(1441.904 856.609) rotate(90)" fill="none" stroke="#fff" stroke-width="1.5"/>
          <path id="Vector-24" data-name="Vector" d="M0,0H12.906" transform="translate(1435.51 850.096) rotate(90)" fill="none" stroke="#fff" stroke-width="1.5"/>
        </g>
      </g>
      <g id="Group-16" data-name="Group">
        <g id="Group-17" data-name="Group">
          <path id="Vector-25" data-name="Vector" d="M0,0V13.025" transform="translate(1415.025 750.513) rotate(90)" fill="none" stroke="#fff" stroke-width="1.5"/>
          <path id="Vector-26" data-name="Vector" d="M0,0H13.025" transform="translate(1408.513 744) rotate(90)" fill="none" stroke="#fff" stroke-width="1.5"/>
        </g>
        <g id="Group-18" data-name="Group">
          <path id="Vector-27" data-name="Vector" d="M0,0V13.025" transform="translate(1415.025 785.799) rotate(90)" fill="none" stroke="#fff" stroke-width="1.5"/>
          <path id="Vector-28" data-name="Vector" d="M0,0H12.906" transform="translate(1408.513 779.405) rotate(90)" fill="none" stroke="#fff" stroke-width="1.5"/>
        </g>
        <g id="Group-19" data-name="Group">
          <path id="Vector-29" data-name="Vector" d="M0,0V13.025" transform="translate(1415.025 821.205) rotate(90)" fill="none" stroke="#fff" stroke-width="1.5"/>
          <path id="Vector-30" data-name="Vector" d="M0,0H13.025" transform="translate(1408.513 814.691) rotate(90)" fill="none" stroke="#fff" stroke-width="1.5"/>
        </g>
        <g id="Group-20" data-name="Group">
          <path id="Vector-31" data-name="Vector" d="M0,0V13.025" transform="translate(1415.025 856.609) rotate(90)" fill="none" stroke="#fff" stroke-width="1.5"/>
          <path id="Vector-32" data-name="Vector" d="M0,0H12.906" transform="translate(1408.513 850.096) rotate(90)" fill="none" stroke="#fff" stroke-width="1.5"/>
        </g>
      </g>
    </g>
    <path id="Vector_4" data-name="Vector 4" d="M226-58.528c-5,0-62,60-71.5,58.5s19.5-81,14-82c-4.4-.8-40.5,45.333-58,68.5-3.167,2.5-2.1-11.3,27.5-86.5-20,39.6-100.333,74.167-138,86.5" transform="translate(1668 524) rotate(180)" fill="none" stroke="#191919" stroke-width="2"/>
    <g id="Group_1000004919" data-name="Group 1000004919">
      <path id="Vector_201" data-name="Vector 201" d="M6.694,51.327C-5.833,38.8,2.054,11.889,7.564,0" transform="translate(1070.48 356)" fill="none" stroke="#191919" stroke-width="2"/>
      <path id="Vector_202" data-name="Vector 202" d="M7.7,59.157C-6.709,44.719,2.363,13.7,8.7,0" transform="translate(1045 365.753) rotate(-9.055)" fill="none" stroke="#191919" stroke-width="2"/>
    </g>
  </g>
</svg>
